<svg width='600' height='600' xmlns='http://www.w3.org/2000/svg' version='1.1'>
<line style="stroke:#000000;" x1="300" y1="0" x2="300" y2="600" />
<line style="stroke:#000000;" x1="0" y1="300" x2="600" y2="300" />
<text x="301" y="310" font-size="10">Origo</text>
<text x="580" y="310" font-size="10">Re</text>
<text x="301" y="10" font-size="10">Im</text>
<line style="stroke:#FF0000;" x1="330" y1="295" x2="330" y2="305"/>
<text x="328" y="315" font-size="8">1</text>
<line style="stroke:#FF0000;" x1="360" y1="295" x2="360" y2="305"/>
<text x="358" y="315" font-size="8">2</text>
<line style="stroke:#FF0000;" x1="390" y1="295" x2="390" y2="305"/>
<text x="388" y="315" font-size="8">3</text>
<line style="stroke:#FF0000;" x1="420" y1="295" x2="420" y2="305"/>
<text x="418" y="315" font-size="8">4</text>
<line style="stroke:#FF0000;" x1="450" y1="295" x2="450" y2="305"/>
<text x="448" y="315" font-size="8">5</text>
<line style="stroke:#FF0000;" x1="480" y1="295" x2="480" y2="305"/>
<text x="478" y="315" font-size="8">6</text>
<line style="stroke:#FF0000;" x1="510" y1="295" x2="510" y2="305"/>
<text x="508" y="315" font-size="8">7</text>
<line style="stroke:#FF0000;" x1="540" y1="295" x2="540" y2="305"/>
<text x="538" y="315" font-size="8">8</text>
<line style="stroke:#FF0000;" x1="570" y1="295" x2="570" y2="305"/>
<text x="568" y="315" font-size="8">9</text>
<line style="stroke:#FF0000;" x1="295" y1="270" x2="305" y2="270"/>
<text x="289" y="272" font-size="8">1</text>
<line style="stroke:#FF0000;" x1="295" y1="240" x2="305" y2="240"/>
<text x="289" y="242" font-size="8">2</text>
<line style="stroke:#FF0000;" x1="295" y1="210" x2="305" y2="210"/>
<text x="289" y="212" font-size="8">3</text>
<line style="stroke:#FF0000;" x1="295" y1="180" x2="305" y2="180"/>
<text x="289" y="182" font-size="8">4</text>
<line style="stroke:#FF0000;" x1="295" y1="150" x2="305" y2="150"/>
<text x="289" y="152" font-size="8">5</text>
<line style="stroke:#FF0000;" x1="295" y1="120" x2="305" y2="120"/>
<text x="289" y="122" font-size="8">6</text>
<line style="stroke:#FF0000;" x1="295" y1="90" x2="305" y2="90"/>
<text x="289" y="92" font-size="8">7</text>
<line style="stroke:#FF0000;" x1="295" y1="60" x2="305" y2="60"/>
<text x="289" y="62" font-size="8">8</text>
<line style="stroke:#FF0000;" x1="295" y1="30" x2="305" y2="30"/>
<text x="289" y="32" font-size="8">9</text>
<line style="stroke:#d14508;" x1="300" y1="300" x2="480.000000" y2="-150.000000"/>
<text x="480.000000" y="-150.000000" font-size="8">1a1</text>
    <line style="stroke:#d14508;" x1="300" y1="300" x2="335.597487" y2="-719.378644"/>
<text x="335.597487" y="-719.378644" font-size="8">1a2</text>
    <line style="stroke:#d14508;" x1="300" y1="300" x2="1559.999994" y2="180.000001"/>
<text x="1559.999994" y="180.000001" font-size="8">1a3</text>
    <line style="stroke:#d14508;" x1="300" y1="300" x2="450.000006" y2="239.999999"/>
<text x="450.000006" y="239.999999" font-size="8">1a4</text>
    <line style="stroke:#d14508;" x1="300" y1="300" x2="326.790585" y2="1.198620"/>
<text x="326.790585" y="1.198620" font-size="8">1a5</text>
    <line style="stroke:#d14508;" x1="300" y1="300" x2="419.999999" y2="209.999999"/>
<text x="419.999999" y="209.999999" font-size="8">1a6</text>
    <line style="stroke:#d14508;" x1="300" y1="300" x2="1595.597488" y2="-839.378654"/>
<text x="1595.597488" y="-839.378654" font-size="8">1a7</text>
    <line style="stroke:#d14508;" x1="300" y1="300" x2="335.597487" y2="-719.378644"/>
<text x="335.597487" y="-719.378644" font-size="8">1a8</text>
    <line style="stroke:#d14508;" x1="300" y1="300" x2="4484.307016" y2="-2615.746010"/>
<text x="4484.307016" y="-2615.746010" font-size="8">1a9</text>
    <line style="stroke:#d14508;" x1="300" y1="300" x2="300.214880" y2="299.074303"/>
<text x="300.214880" y="299.074303" font-size="8">1aa</text>
    <line style="stroke:#d14508;" x1="300" y1="300" x2="8251.715163" y2="-28626.980934"/>
<text x="8251.715163" y="-28626.980934" font-size="8">1ab</text>
    <line style="stroke:#d14508;" x1="300" y1="300" x2="515.597487" y2="-1169.378644"/>
<text x="515.597487" y="-1169.378644" font-size="8">1ac</text>
    <line style="stroke:#d14508;" x1="300" y1="300" x2="nan" y2="nan"/>
<text x="nan" y="nan" font-size="8">1ad</text>
    <line style="stroke:#d14508;" x1="300" y1="300" x2="nan" y2="nan"/>
<text x="nan" y="nan" font-size="8">1ae</text>
    <line style="stroke:#d14508;" x1="300" y1="300" x2="5700.000000" y2="-5370.000000"/>
<text x="5700.000000" y="-5370.000000" font-size="8">1af</text>
    <line style="stroke:#d14508;" x1="300" y1="300" x2="123551.601608" y2="-1172360.657267"/>
<text x="123551.601608" y="-1172360.657267" font-size="8">1b0</text>
    <line style="stroke:#d14508;" x1="300" y1="300" x2="nan" y2="nan"/>
<text x="nan" y="nan" font-size="8">1b1</text>
    <line style="stroke:#d14508;" x1="300" y1="300" x2="330.000000" y2="300.000000"/>
<text x="330.000000" y="300.000000" font-size="8">1b2</text>
    <line style="stroke:#d14508;" x1="300" y1="300" x2="nan" y2="nan"/>
<text x="nan" y="nan" font-size="8">1b3</text>
    <line style="stroke:#d14508;" x1="300" y1="300" x2="nan" y2="nan"/>
<text x="nan" y="nan" font-size="8">1b4</text>
    
</svg>